  0
SECTION
  2
BLOCKS
  0
ENDSEC
  0
SECTION
  2
ENTITIES
  0
LINE
  8
0
 10
0
 20
1
 11
0.0761108
 21
0.61731
  0
LINE
  8
0
 10
0.0761108
 20
0.61731
 11
0.292892
 21
0.292892
  0
LINE
  8
0
 10
0.292892
 20
0.292892
 11
0.61731
 21
0.0761108
  0
LINE
  8
0
 10
0.61731
 20
0.0761108
 11
1
 21
0
  0
LINE
  8
0
 10
1
 20
0
 11
34
 21
0
  0
LINE
  8
0
 10
34
 20
0
 11
34.3827
 21
0.0761108
  0
LINE
  8
0
 10
34.3827
 20
0.0761108
 11
34.7071
 21
0.292892
  0
LINE
  8
0
 10
34.7071
 20
0.292892
 11
34.9239
 21
0.61731
  0
LINE
  8
0
 10
34.9239
 20
0.61731
 11
35
 21
1
  0
LINE
  8
0
 10
35
 20
1
 11
35
 21
18
  0
LINE
  8
0
 10
35
 20
18
 11
34.9239
 21
18.3827
  0
LINE
  8
0
 10
34.9239
 20
18.3827
 11
34.7071
 21
18.7071
  0
LINE
  8
0
 10
34.7071
 20
18.7071
 11
34.3827
 21
18.9239
  0
LINE
  8
0
 10
34.3827
 20
18.9239
 11
34
 21
19
  0
LINE
  8
0
 10
34
 20
19
 11
1
 21
19
  0
LINE
  8
0
 10
1
 20
19
 11
0.61731
 21
18.9239
  0
LINE
  8
0
 10
0.61731
 20
18.9239
 11
0.292892
 21
18.7071
  0
LINE
  8
0
 10
0.292892
 20
18.7071
 11
0.0761108
 21
18.3827
  0
LINE
  8
0
 10
0.0761108
 20
18.3827
 11
0
 21
18
  0
LINE
  8
0
 10
0
 20
18
 11
0
 21
1
  0
ENDSEC
  0
SECTION
  2
OBJECTS
  0
DICTIONARY
  0
ENDSEC
  0
EOF
