  0
SECTION
  2
BLOCKS
  0
ENDSEC
  0
SECTION
  2
ENTITIES
  0
LINE
  8
0
 10
0
 20
1
 11
0.0761108
 21
0.61731
  0
LINE
  8
0
 10
0.0761108
 20
0.61731
 11
0.292892
 21
0.292892
  0
LINE
  8
0
 10
0.292892
 20
0.292892
 11
0.61731
 21
0.0761108
  0
LINE
  8
0
 10
0.61731
 20
0.0761108
 11
1
 21
0
  0
LINE
  8
0
 10
1
 20
0
 11
115
 21
0
  0
LINE
  8
0
 10
115
 20
0
 11
115.383
 21
0.0761108
  0
LINE
  8
0
 10
115.383
 20
0.0761108
 11
115.707
 21
0.292892
  0
LINE
  8
0
 10
115.707
 20
0.292892
 11
115.924
 21
0.61731
  0
LINE
  8
0
 10
115.924
 20
0.61731
 11
116
 21
1
  0
LINE
  8
0
 10
116
 20
1
 11
116
 21
45
  0
LINE
  8
0
 10
116
 20
45
 11
115.924
 21
45.3827
  0
LINE
  8
0
 10
115.924
 20
45.3827
 11
115.707
 21
45.7071
  0
LINE
  8
0
 10
115.707
 20
45.7071
 11
115.383
 21
45.9239
  0
LINE
  8
0
 10
115.383
 20
45.9239
 11
115
 21
46
  0
LINE
  8
0
 10
115
 20
46
 11
1
 21
46
  0
LINE
  8
0
 10
1
 20
46
 11
0.61731
 21
45.9239
  0
LINE
  8
0
 10
0.61731
 20
45.9239
 11
0.292892
 21
45.7071
  0
LINE
  8
0
 10
0.292892
 20
45.7071
 11
0.0761108
 21
45.3827
  0
LINE
  8
0
 10
0.0761108
 20
45.3827
 11
0
 21
45
  0
LINE
  8
0
 10
0
 20
45
 11
0
 21
1
  0
ENDSEC
  0
SECTION
  2
OBJECTS
  0
DICTIONARY
  0
ENDSEC
  0
EOF
