  0
SECTION
  2
BLOCKS
  0
ENDSEC
  0
SECTION
  2
ENTITIES
  0
LINE
  8
0
 10
0
 20
1
 11
0.0761108
 21
0.61731
  0
LINE
  8
0
 10
0.0761108
 20
0.61731
 11
0.292892
 21
0.292892
  0
LINE
  8
0
 10
0.292892
 20
0.292892
 11
0.61731
 21
0.0761108
  0
LINE
  8
0
 10
0.61731
 20
0.0761108
 11
1
 21
0
  0
LINE
  8
0
 10
1
 20
0
 11
53
 21
0
  0
LINE
  8
0
 10
53
 20
0
 11
53.3827
 21
0.0761108
  0
LINE
  8
0
 10
53.3827
 20
0.0761108
 11
53.7071
 21
0.292892
  0
LINE
  8
0
 10
53.7071
 20
0.292892
 11
53.9239
 21
0.61731
  0
LINE
  8
0
 10
53.9239
 20
0.61731
 11
54
 21
1
  0
LINE
  8
0
 10
54
 20
1
 11
54
 21
22
  0
LINE
  8
0
 10
54
 20
22
 11
53.9239
 21
22.3827
  0
LINE
  8
0
 10
53.9239
 20
22.3827
 11
53.7071
 21
22.7071
  0
LINE
  8
0
 10
53.7071
 20
22.7071
 11
53.3827
 21
22.9239
  0
LINE
  8
0
 10
53.3827
 20
22.9239
 11
53
 21
23
  0
LINE
  8
0
 10
53
 20
23
 11
1
 21
23
  0
LINE
  8
0
 10
1
 20
23
 11
0.61731
 21
22.9239
  0
LINE
  8
0
 10
0.61731
 20
22.9239
 11
0.292892
 21
22.7071
  0
LINE
  8
0
 10
0.292892
 20
22.7071
 11
0.0761108
 21
22.3827
  0
LINE
  8
0
 10
0.0761108
 20
22.3827
 11
0
 21
22
  0
LINE
  8
0
 10
0
 20
22
 11
0
 21
1
  0
ENDSEC
  0
SECTION
  2
OBJECTS
  0
DICTIONARY
  0
ENDSEC
  0
EOF
